<svg width="180" height="48" viewBox="0 0 180 48" fill="none" xmlns="http://www.w3.org/2000/svg">
<path fill-rule="evenodd" clip-rule="evenodd" d="M18.6664 14.3014L18.4977 14.1804L10.8704 8.49616C8.34799 6.74624 7.02672 5.4348 7.02672 3.99866C7.02672 2.68723 7.86753 2.31311 9.00862 2.31311C12.0715 2.31311 18.6178 6.37212 24.4434 16.055H24.8638V0H24.5034L21.6807 2.43782C19.3385 1.06202 16.3356 0.313779 13.2727 0.313779C6.24598 0.313779 1.38132 4.43715 1.38132 10.6805C1.38132 14.8039 3.66351 17.6158 7.98764 20.5565L15.0144 25.4281C19.6988 28.5538 20.8399 29.9296 20.8399 31.3014C20.8399 32.6732 19.9391 33.2364 18.9181 33.2364C14.4138 33.2364 5.28506 26.6752 0.360345 16.7429H0L1.26121 34.1697C3.60573 33.764 5.40294 34.1471 7.44736 34.5829C9.17358 34.9509 11.076 35.3564 13.633 35.3564C23.6026 35.3564 26.4253 29.1734 26.4253 24.8006C26.4253 19.8703 22.8579 17.3099 18.6664 14.3014ZM55.9114 25.6751L55.9132 25.673V25.677L55.9114 25.6751ZM55.6129 25.3633L55.9114 25.6751C50.8073 31.4829 46.4839 35.4806 44.4422 35.4806C34.833 35.4806 27.3859 28.9838 27.3859 18.4279C27.3859 3.62404 40.4784 0.373611 43.8417 0.373611C50.7185 0.373611 54.3219 4.45004 55.2827 9.88262C55.6079 9.40724 55.9249 8.93894 56.2351 8.48052C59.2525 4.02225 61.6372 0.498765 64.8569 0.498765C67.7396 0.498765 69.9618 2.30903 69.4212 9.43341H69.4813C73.5052 3.68482 76.6282 0.438423 78.55 0.438423C85.2164 0.438423 87.7388 5.3744 87.7388 11.3724L87.6187 31.7358L90.4414 34.1736V34.5478H74.2859V34.1736L77.0486 31.7358V12.1206C77.0486 8.99895 75.6072 8.06163 73.8054 8.06163C72.2439 8.06163 71.1029 8.93458 70.2621 10.1857V31.7358L73.0247 34.1736V34.5478H56.8692V34.1736L59.6919 31.7358V8.37139L55.3906 10.5802C55.4335 10.9018 55.4675 11.2276 55.4928 11.557C55.4928 13.3069 47.5052 17.1165 44.9827 17.1165H37.2954C39.5175 22.3622 43.7816 27.1132 49.9675 27.1132C51.6491 27.1132 53.2106 26.6747 55.6129 25.3633ZM36.875 15.9901C35.9741 13.492 35.4937 10.9898 35.4937 8.8054C35.4937 5.05615 36.9951 3.24589 38.7368 3.24589C42.0399 3.24589 44.6224 8.74506 44.7425 15.9901H36.875ZM99.5754 27.2264C98.9869 26.5747 98.6025 25.4765 98.4263 23.9317V23.9237H89.9502C89.9502 27.3431 91.1514 30.155 93.5497 32.3595C95.948 34.568 99.7636 35.6703 104.7 35.6703C109.637 35.6703 113.285 34.6284 115.647 32.5446C118.005 30.4607 119.186 27.7695 119.186 24.4748C119.186 21.9767 118.365 19.8928 116.724 18.2234C115.062 16.574 112.568 15.3431 109.237 14.5304C104.244 13.392 101.333 12.5874 100.512 12.1208C99.6875 11.6743 99.2751 10.9542 99.2751 9.95652C99.2751 9.16 99.6635 8.47211 100.436 7.88075C101.209 7.2894 102.51 6.99574 104.332 6.99574C106.546 6.99574 108.116 7.58709 109.036 8.76577C109.529 9.41746 109.833 10.3025 109.949 11.4208H118.305C117.933 7.35377 116.488 4.48953 113.969 2.83214C111.455 1.17474 108.412 0.346046 104.2 0.346046C99.9878 0.346046 96.7207 1.45232 94.3985 3.65681C92.0763 5.86533 90.9152 8.50429 90.9152 11.5737C90.9152 14.1764 91.6599 16.1677 93.1453 17.5516C94.6307 18.9555 97.1891 20.1221 100.821 21.0595C105.865 22.2985 108.78 23.1754 109.565 23.6823C110.346 24.1932 110.738 24.8932 110.738 25.911C110.738 26.9287 110.25 27.689 109.281 28.1999C108.312 28.7108 106.999 28.9643 105.349 28.9643C102.542 28.9643 100.616 28.385 99.5754 27.2264ZM135.001 14.3215C136.559 14.1204 137.668 13.8629 138.34 13.5572C139.542 13.0302 140.142 12.2056 140.142 11.0872C140.142 9.72348 139.682 8.78617 138.761 8.26723C137.84 7.74829 136.487 7.49083 134.705 7.49083C132.703 7.49083 131.286 7.9977 130.453 9.01547C129.856 9.76773 129.46 10.7855 129.264 12.0648H121.2C121.376 9.15627 122.161 6.76672 123.554 4.89612C125.772 1.96752 129.58 0.50322 134.981 0.50322C138.497 0.50322 141.615 1.2233 144.346 2.66749C147.077 4.11167 148.438 6.83511 148.438 10.8418V26.0923C148.438 27.1503 148.458 28.4295 148.498 29.934C148.558 31.0725 148.722 31.8449 148.999 32.2512C149.271 32.6575 149.683 32.9954 150.232 33.2569V34.5361H141.139C140.887 33.8643 140.711 33.2368 140.611 32.6454C140.51 32.0541 140.434 31.3863 140.374 30.634C139.213 31.9374 137.876 33.0437 136.362 33.9609C134.553 35.039 132.507 35.578 130.229 35.578C127.318 35.578 124.916 34.7172 123.018 32.9994C121.12 31.2817 120.171 28.8479 120.171 25.694C120.171 21.6068 121.696 18.6461 124.751 16.8157C126.425 15.818 128.887 15.106 132.138 14.6796L135.005 14.3135L135.001 14.3215ZM140.11 18.3765C139.574 18.7225 139.033 19.0001 138.489 19.2133C137.944 19.4265 137.195 19.6236 136.242 19.8086L134.341 20.1747C132.559 20.5006 131.278 20.8948 130.501 21.3655C129.184 22.158 128.527 23.3889 128.527 25.0544C128.527 26.5388 128.927 27.6129 129.732 28.2726C130.537 28.9324 131.514 29.2622 132.667 29.2622C134.493 29.2622 136.174 28.7151 137.716 27.6169C139.253 26.5187 140.054 24.5153 140.114 21.6068V18.3725L140.11 18.3765ZM153.855 40.9802L152.802 40.9199V47.8753C153.703 47.9397 154.379 47.9718 154.828 47.9839C155.276 47.996 155.873 48 156.618 48C160.317 48 162.784 47.2437 164.017 45.7271C165.25 44.2105 166.923 40.3004 169.042 33.9966L180 1.29527H171.115L164.517 25.8183L157.538 1.29527H148.242L159.989 36.012C160.045 36.2534 159.865 36.9252 159.444 38.0234C159.024 39.1217 158.567 39.8418 158.079 40.1877C157.571 40.5538 156.946 40.7871 156.201 40.8877C155.457 40.9923 154.676 41.0204 153.855 40.9802Z" fill="currentColor"/>
</svg>
